<svg width="1440" height="900" viewBox="0 0 1440 900" fill="none" xmlns="http://www.w3.org/2000/svg" xmlns:xlink="http://www.w3.org/1999/xlink">
<g clip-path="url(#clip0_1936_1476)">
<rect width="1440" height="900" fill="#00BCF0"/>
<g id="Repeat group 3_inner" data-figma-trr="l6u1.4-0f">
<g clip-path="url(#clip1_1936_1476)">
<path d="M213.211 752.489L213.211 760.066C213.211 771.111 204.257 780.066 193.211 780.066L177.35 780.066C166.304 780.066 157.35 789.02 157.35 800.066L157.35 815.927C157.35 826.973 148.396 835.927 137.35 835.927L121.489 835.927C110.443 835.927 101.489 844.881 101.489 855.927L101.489 864.211" stroke="#303539" stroke-opacity="0.03" stroke-width="2"/>
<path d="M134.211 752.489L134.211 760.066C134.211 771.111 125.257 780.066 114.211 780.066L98.35 780.066C87.3043 780.066 78.35 789.02 78.35 800.066L78.35 815.927C78.35 826.973 69.3957 835.927 58.35 835.927L42.4885 835.927C31.4428 835.927 22.4885 844.881 22.4885 855.927L22.4885 864.211" stroke="#303539" stroke-opacity="0.03" stroke-width="2"/>
<path d="M213.211 652.211L213.211 659.789C213.211 670.834 204.257 679.789 193.211 679.789L177.35 679.789C166.304 679.789 157.35 688.743 157.35 699.789L157.35 715.65C157.35 726.696 148.396 735.65 137.35 735.65L121.489 735.65C110.443 735.65 101.489 744.604 101.489 755.65L101.489 763.934" stroke="#303539" stroke-opacity="0.03" stroke-width="2"/>
<path d="M134.211 652.211L134.211 659.789C134.211 670.834 125.257 679.789 114.211 679.789L98.35 679.789C87.3043 679.789 78.35 688.743 78.35 699.789L78.35 715.65C78.35 726.696 69.3957 735.65 58.35 735.65L42.4885 735.65C31.4428 735.65 22.4885 744.604 22.4885 755.65L22.4885 763.934" stroke="#303539" stroke-opacity="0.03" stroke-width="2"/>
</g>
</g>
<use xlink:href="#Repeat%20group%203_inner" transform="translate(358.4)"/>
<use xlink:href="#Repeat%20group%203_inner" transform="translate(716.8)"/>
<use xlink:href="#Repeat%20group%203_inner" transform="translate(1075.2)"/>
<use xlink:href="#Repeat%20group%203_inner" transform="translate(1433.6)"/>
<use xlink:href="#Repeat%20group%203_inner" transform="translate(1792)"/>
<g id="Repeat group 2_inner" data-figma-trr="l6u1.4-0f">
<g clip-path="url(#clip2_1936_1476)">
<path d="M213.211 454.489L213.211 462.066C213.211 473.111 204.257 482.066 193.211 482.066L177.35 482.066C166.304 482.066 157.35 491.02 157.35 502.066L157.35 517.927C157.35 528.973 148.396 537.927 137.35 537.927L121.489 537.927C110.443 537.927 101.489 546.881 101.489 557.927L101.489 566.211" stroke="#303539" stroke-opacity="0.03" stroke-width="2"/>
<path d="M134.211 454.489L134.211 462.066C134.211 473.111 125.257 482.066 114.211 482.066L98.35 482.066C87.3043 482.066 78.35 491.02 78.35 502.066L78.35 517.927C78.35 528.973 69.3957 537.927 58.35 537.927L42.4885 537.927C31.4428 537.927 22.4885 546.881 22.4885 557.927L22.4885 566.211" stroke="#303539" stroke-opacity="0.03" stroke-width="2"/>
<path d="M213.211 354.211L213.211 361.789C213.211 372.834 204.257 381.789 193.211 381.789L177.35 381.789C166.304 381.789 157.35 390.743 157.35 401.789L157.35 417.65C157.35 428.696 148.396 437.65 137.35 437.65L121.489 437.65C110.443 437.65 101.489 446.604 101.489 457.65L101.489 465.934" stroke="#303539" stroke-opacity="0.03" stroke-width="2"/>
<path d="M134.211 354.211L134.211 361.789C134.211 372.834 125.257 381.789 114.211 381.789L98.35 381.789C87.3043 381.789 78.35 390.743 78.35 401.789L78.35 417.65C78.35 428.696 69.3957 437.65 58.35 437.65L42.4885 437.65C31.4428 437.65 22.4885 446.604 22.4885 457.65L22.4885 465.934" stroke="#303539" stroke-opacity="0.03" stroke-width="2"/>
</g>
</g>
<use xlink:href="#Repeat%20group%202_inner" transform="translate(358.4)"/>
<use xlink:href="#Repeat%20group%202_inner" transform="translate(716.8)"/>
<use xlink:href="#Repeat%20group%202_inner" transform="translate(1075.2)"/>
<use xlink:href="#Repeat%20group%202_inner" transform="translate(1433.6)"/>
<use xlink:href="#Repeat%20group%202_inner" transform="translate(1792)"/>
<g id="Repeat group 1_inner" data-figma-trr="l6u1.4-0f">
<g clip-path="url(#clip3_1936_1476)">
<path d="M213.139 117.416L213.139 124.993C213.139 136.039 204.185 144.993 193.139 144.993L177.278 144.993C166.232 144.993 157.278 153.947 157.278 164.993L157.278 180.855C157.278 191.9 148.323 200.855 137.278 200.855L121.416 200.855C110.371 200.855 101.416 209.809 101.416 220.855L101.416 229.139" stroke="#303539" stroke-opacity="0.03" stroke-width="2"/>
<path d="M134.139 117.416L134.139 124.993C134.139 136.039 125.185 144.993 114.139 144.993L98.2777 144.993C87.232 144.993 78.2777 153.947 78.2777 164.993L78.2777 180.855C78.2777 191.9 69.3234 200.855 58.2777 200.855L42.4163 200.855C31.3706 200.855 22.4163 209.809 22.4163 220.855L22.4163 229.139" stroke="#303539" stroke-opacity="0.03" stroke-width="2"/>
<path d="M213.139 17.1387L213.139 24.7158C213.139 35.7615 204.185 44.7158 193.139 44.7158L177.278 44.7158C166.232 44.7158 157.278 53.6701 157.278 64.7158L157.278 80.5773C157.278 91.623 148.323 100.577 137.278 100.577L121.416 100.577C110.371 100.577 101.416 109.532 101.416 120.577L101.416 128.862" stroke="#303539" stroke-opacity="0.03" stroke-width="2"/>
<path d="M134.139 17.1387L134.139 24.7158C134.139 35.7615 125.185 44.7158 114.139 44.7158L98.2777 44.7158C87.232 44.7158 78.2777 53.6701 78.2777 64.7158L78.2777 80.5773C78.2777 91.623 69.3234 100.577 58.2777 100.577L42.4163 100.577C31.3706 100.577 22.4163 109.532 22.4163 120.577L22.4163 128.862" stroke="#303539" stroke-opacity="0.03" stroke-width="2"/>
</g>
</g>
<use xlink:href="#Repeat%20group%201_inner" transform="translate(358.4)"/>
<use xlink:href="#Repeat%20group%201_inner" transform="translate(716.8)"/>
<use xlink:href="#Repeat%20group%201_inner" transform="translate(1075.2)"/>
<use xlink:href="#Repeat%20group%201_inner" transform="translate(1433.6)"/>
<use xlink:href="#Repeat%20group%201_inner" transform="translate(1792)"/>
<path d="M1102 0H1440V445L770.5 448L1102 0Z" fill="#FFE556"/>
<path d="M1333.5 569.5L1437.5 445L1440 900H1167.5C1178.89 890.5 1180.77 880.5 1177.54 865L1128 814L1333.5 569.5Z" fill="#C8412D"/>
<path d="M1440 442.5V445V900L1437.5 445.5L1440 442.5Z" fill="#C8412D"/>
<path d="M753 0H1103L772.22 448L1440 442.473L1050.5 906.554L749 900C710.533 763.724 1215.97 1000.99 1177.5 864.717L549 218.482L753 0Z" fill="#303539"/>
</g>
<defs>
<clipPath id="clip0_1936_1476">
<rect width="1440" height="900" fill="white"/>
</clipPath>
<clipPath id="clip1_1936_1476">
<rect width="256" height="256" fill="white" transform="translate(249 886) rotate(-180)"/>
</clipPath>
<clipPath id="clip2_1936_1476">
<rect width="256" height="256" fill="white" transform="translate(249 588) rotate(-180)"/>
</clipPath>
<clipPath id="clip3_1936_1476">
<rect width="256" height="256" fill="white" transform="translate(248.928 250.927) rotate(-180)"/>
</clipPath>
</defs>
</svg>
